<svg width="520" height="30" viewBox="0 0 520 30" fill="none" xmlns="http://www.w3.org/2000/svg">
<path fill-rule="evenodd" clip-rule="evenodd" d="M519.992 12.6774L519.319 12.6799C461.465 12.4408 362.161 12.1756 297.673 12.0632C296.114 5.44722 288.933 0.907536 282.37 2.30626C276.668 3.44946 271.955 6.53752 267.478 10.0794C267.382 10.0516 267.287 10.0235 267.191 9.99514C264.008 9.09033 260.646 7.83124 257.188 6.53574C246.963 2.70549 235.888 -1.44294 226.044 2.30626C222.072 3.92023 219.176 7.75013 218.288 11.9934C186.116 12.127 150.375 12.2158 114.509 12.3049L114.508 12.3049L114.505 12.3049C74.9465 12.4032 35.2364 12.5018 -0.00268555 12.6614L11.7374 12.7326L11.7379 12.7326C79.4188 13.1439 150.95 13.5786 218.069 13.4096C217.916 14.932 218.026 16.4813 218.441 17.9779C219.462 21.6968 222.44 24.5768 225.736 26.1851C234.75 30.4222 245.102 27.414 253.324 22.7547C254.968 21.824 256.534 20.7772 258.054 19.6633L269.794 25.6402C273.491 27.708 277.553 29.0438 281.75 29.4018C297.993 30.785 298.429 17.0087 298.253 13.2857C363.79 13.2207 461.035 12.897 519.319 12.6799L520.003 12.6828L519.992 12.6774ZM297.892 13.2861L297.969 13.286C297.959 13.3257 297.948 13.3659 297.937 13.4066C297.93 13.4322 297.923 13.458 297.915 13.484C297.912 13.4524 297.908 13.4209 297.905 13.3894C297.901 13.3549 297.897 13.3205 297.892 13.2861ZM262.312 19.9549C261.414 19.4788 260.468 19.0212 259.488 18.5835C260.385 17.892 261.268 17.1819 262.146 16.4638C262.421 16.5766 262.697 16.69 262.974 16.8037C270.042 19.7078 277.603 22.8144 285.328 21.5271C288.197 20.9874 291.269 19.7638 292.956 17.2151C290.915 19.283 287.957 20.047 285.177 20.2234C278.494 20.5859 272.149 17.8656 266.02 15.238C265.493 15.0121 264.968 14.7869 264.444 14.5644C265.636 13.5753 266.828 12.5886 268.038 11.6316C271.366 12.531 274.75 13.1642 278.21 13.2972C283.893 13.2968 289.956 13.2934 296.331 13.2875C296.716 15.8222 296.127 18.5201 294.269 20.9487C291.499 24.9561 286.937 25.8538 282.37 25.5172C275.424 25.0042 268.774 22.5891 262.312 19.9549ZM262.842 13.8927C263.026 13.7396 263.209 13.5863 263.392 13.4331C264.325 12.6533 265.258 11.8733 266.199 11.1073C262.869 10.111 259.593 8.88877 256.35 7.67887L256.349 7.67863L256.348 7.6783C255.388 7.32001 254.43 6.96281 253.475 6.61289C245.264 3.68481 235.026 0.281179 226.58 3.62069C223.118 5.04066 220.589 8.30737 219.732 11.9874L222.06 11.9775C230.314 11.7477 238.666 12.3408 246.727 14.3285C250.398 15.221 254.307 16.4294 257.876 17.894C258.759 17.2269 259.63 16.536 260.495 15.8326C254.871 13.7328 249.173 11.8008 243.368 10.3598C237.788 9.02045 232.104 7.87295 226.332 8.13062C237.778 5.57918 251.979 9.72738 262.749 13.8542C262.78 13.867 262.811 13.8798 262.842 13.8927ZM226.332 8.13062C226.325 8.13096 226.317 8.13131 226.309 8.13167L226.304 8.13701C226.313 8.13487 226.323 8.13274 226.332 8.13062ZM254.22 18.0848C254.97 18.3549 255.721 18.636 256.467 18.9301C255.207 19.8282 253.918 20.668 252.585 21.4189C244.764 25.8698 234.87 28.8246 226.351 24.8493C222.315 22.9578 219.123 18.9397 219.425 14.2377C219.437 13.9595 219.458 13.6821 219.489 13.4059C220.35 13.4036 221.211 13.4013 222.07 13.3988C232.964 13.0728 243.91 14.3819 254.22 18.0848ZM280.881 12.0362C276.971 12.1124 273.138 11.5581 269.37 10.5968C271.547 8.94039 273.801 7.40857 276.231 6.15337C280.173 4.08555 284.896 2.75509 289.129 4.48094C292.604 5.92626 295.146 8.78804 296.066 12.0604C290.744 12.0512 285.667 12.0432 280.881 12.0362Z" fill="#A57D24"/>
</svg>
